Coordinates
version=1
nRows=14
nColumns=36
inDegrees=yes

Units are S.I. units (second, meters, Newtons, ...)
If the header above contains a line with 'inDegrees', this indicates whether rotational values are in degrees (yes) or radians (no).

endheader
time	pelvis_tilt	pelvis_list	pelvis_rotation	pelvis_tx	pelvis_ty	pelvis_tz	hip_flexion_r	hip_adduction_r	hip_rotation_r	knee_angle_r	knee_angle_r_beta	ankle_angle_r	subtalar_angle_r	mtp_angle_r	hip_flexion_l	hip_adduction_l	hip_rotation_l	knee_angle_l	knee_angle_l_beta	ankle_angle_l	subtalar_angle_l	mtp_angle_l	lumbar_extension	lumbar_bending	lumbar_rotation	arm_flex_r	arm_add_r	arm_rot_r	elbow_flex_r	pro_sup_r	arm_flex_l	arm_add_l	arm_rot_l	elbow_flex_l	pro_sup_l
      1.21666670	    -29.89455584	     -0.01724746	      5.65042681	      0.31802661	      1.07339446	     -0.19016809	     65.67887889	     -5.46451422	      6.03529770	     67.28123111	      1.17427901	     41.84085828	      7.44741938	     -7.49999986	     58.68296708	      1.14081082	     -3.17345524	     59.07749657	      1.03109683	     32.90334258	     -4.53270451	     -7.49999986	    -33.61236042	     -4.77520796	     -3.83640988	     25.15492463	     -9.95931666	      3.53949676	     30.18566157	     78.75266270	     23.19919835	    -16.57551116	      9.52288944	     24.34123462	     81.15651329
      1.23333330	    -29.82570543	      0.21183115	      5.66903108	      0.32440541	      1.07053782	     -0.18768998	     66.02400416	     -5.43054599	      5.81671041	     69.54686465	      1.21382177	     43.81847598	      8.41851719	     -7.49999986	     59.02819485	      0.81147990	     -3.59516817	     61.50803032	      1.07351765	     34.28286299	     -3.54009431	     -7.49999986	    -34.46229358	     -5.53439460	     -3.85241851	     28.54491496	     -9.25823266	      3.09389008	     30.30585321	     78.59072450	     26.70884013	    -17.08428083	      9.72394872	     24.77813615	     81.14381649
      1.25000000	    -28.78616416	      0.52803706	      5.55114892	      0.35715254	      1.06999324	     -0.19596643	     63.79692800	     -5.14129521	      5.93737134	     70.47411134	      1.23000528	     45.71584879	      8.53202910	     -7.49999986	     56.94454349	      0.75681217	     -3.74760685	     62.34770108	      1.08817266	     34.77215251	     -2.71969250	     -7.49999986	    -35.23696556	     -6.66464189	     -3.05485741	     32.48310396	     -8.76050725	      2.57144389	     29.18519787	     78.09374221	     30.98393360	    -17.31363180	     14.18393122	     24.51931646	     82.03756223
      1.26666670	    -28.79396119	      0.55000009	      5.57727892	      0.34491012	      1.05937155	     -0.19248906	     63.17694276	     -4.97068323	      5.88454502	     71.56726926	      1.24908449	     46.90791144	      8.50534551	     -7.49999986	     56.69533772	      0.31408423	     -4.10086269	     63.93159041	      1.11581675	     35.77536012	     -0.84875463	     -7.49999986	    -34.95941773	     -7.33377569	     -2.60963627	     36.99873675	     -8.35539548	      1.94102165	     31.49203841	     76.69427248	     34.93199661	    -17.56309838	     14.25081143	     27.21391355	     80.46689882
      1.28333330	    -28.56961426	      0.80896036	      5.51971597	      0.36072318	      1.05751668	     -0.19886876	     61.93132379	     -4.84148042	      6.30611779	     72.23313974	      1.26070612	     47.64518898	      7.10377807	     -7.49999986	     55.53621818	      0.19370816	     -4.46923415	     65.62125490	      1.14530696	     36.13122168	      0.83274357	     -7.49999986	    -34.31249913	     -7.56417102	     -1.56596735	     43.04673598	     -8.63019937	      0.80653863	     30.25698308	     77.20788992	     41.96854445	    -16.37960884	     18.73822689	     26.32932326	     81.52392863
      1.30000000	    -28.46998771	      0.96211913	      5.33616046	      0.36752912	      1.05814418	     -0.19582339	     60.93768240	     -4.68021396	      6.43125121	     72.62809627	      1.26759941	     47.88162400	      6.28428555	     -7.49999986	     54.36718209	      0.09688892	     -4.31560521	     66.32251659	      1.15754628	     36.92401884	      2.59435109	     -7.49999986	    -33.37909581	     -7.95206944	      0.09738175	     48.65712281	    -10.37306467	      1.28107279	     31.35731219	     79.49786898	     49.91223818	    -14.60487189	     25.17971027	     26.66652123	     84.02719866
      1.31666670	    -28.75348494	      0.99268167	      5.01897493	      0.36726420	      1.05026127	     -0.19523931	     60.76299655	     -4.47265562	      6.26371311	     73.43034370	      1.28160127	     47.87279143	      6.09548199	     -7.49999986	     54.32187310	     -0.11123701	     -4.01867530	     66.67619144	      1.16371907	     38.26999532	      3.52936812	     -7.49999986	    -31.76586919	     -8.28079998	      1.26914763	     56.23050496	    -12.52988644	      2.79035934	     31.40027977	     81.56990132	     58.63570238	    -12.83900975	     30.79925364	     28.80212757	     84.95189098
      1.33333330	    -28.95582014	      0.99668640	      4.95587500	      0.36817243	      1.06023304	     -0.19479857	     60.42347947	     -4.28399163	      6.14380659	     73.78398488	      1.28777347	     47.61237068	      5.39470922	     -7.49999987	     54.24470626	     -0.34615718	     -4.02707605	     66.46351083	      1.16000710	     39.13680416	      4.40903119	     -7.49999987	    -30.54942656	     -8.66086572	      1.78772892	     64.67329848	    -14.80023115	      5.86285467	     31.88979547	     91.76648355	     68.81219106	    -12.68295129	     39.01602847	     34.25867003	     85.84448246
      1.35000000	    -28.97183009	      0.98091081	      4.97123671	      0.37161723	      1.06951857	     -0.19310849	     59.21514632	     -3.99211605	      6.15427389	     73.01094651	      1.27428141	     47.12339891	      4.03142213	     -7.49999987	     53.47863232	     -0.56539961	     -4.12969086	     66.35611488	      1.15813268	     38.14607517	      5.17649011	     -7.49999987	    -29.65904230	     -8.66446026	      0.41911083	     74.78030997	    -15.58134611	     16.08506628	     31.75369201	     92.44708529	     79.40468558	    -16.01795411	     47.89413400	     43.72905706	     80.75293644
      1.36666670	    -28.61315301	      0.80002720	      4.67927083	      0.38936304	      1.07807771	     -0.19353501	     57.20380737	     -3.46407867	      5.96254945	     71.37322874	      1.24569784	     46.24428727	      2.86659931	     -7.49999987	     51.76560809	     -0.77473591	     -3.79412678	     65.75953894	      1.14772047	     36.64577213	      5.60534897	     -7.49999987	    -28.19505155	     -8.62825142	     -1.12878636	     82.58930863	    -15.90158748	     24.99337071	     34.38786639	     93.08337993	     89.02951413	    -20.30247462	     54.12174029	     51.94865810	     78.95160229
      1.38333330	    -27.96310327	      0.50524951	      4.31092653	      0.40763119	      1.08308232	     -0.20074821	     54.53589236	     -2.95652895	      5.81174623	     69.30173621	      1.20954347	     44.84512592	      1.55257112	     -7.49999987	     49.42955701	     -0.92340559	     -3.29935952	     64.45590140	      1.12496770	     35.26123858	      5.27635486	     -7.49999987	    -26.04569103	     -8.34588777	     -1.66784640	     88.35019239	    -17.29085902	     31.69127217	     39.68953551	     92.27594015	     96.59998699	    -22.46969037	     56.26965318	     55.98957684	     77.45161292
      1.40000000	    -26.49564023	      0.21465402	      3.98767447	      0.43293776	      1.09747554	     -0.20464532	     50.13523973	     -2.41098935	      5.81104490	     65.93911596	      1.15085468	     42.69973597	     -1.02455517	     -7.49999987	     45.16842876	     -1.06291591	     -2.98396305	     62.12905362	      1.08435655	     32.72667926	      5.18294488	     -7.49999987	    -24.69389763	     -7.69288560	     -1.56360400	     93.29084535	    -18.30128601	     33.72302363	     44.88069635	     88.47546775	    101.95602173	    -22.53360761	     53.69123749	     56.35113037	     75.09521094
      1.41666670	    -23.75176538	     -0.75528936	      3.78822057	      0.46901838	      1.13605414	     -0.21192742	     42.60635114	     -1.53215198	      5.12818106	     59.31151508	      1.03518122	     39.10686223	     -3.75330735	     -7.49999987	     38.36445542	     -1.36640944	     -1.62600269	     57.76532083	      1.00819504	     28.58913720	      4.09930996	     -7.49999987	    -23.52197226	     -6.11866586	      0.50255721	     93.91876004	    -22.74566168	     36.52756718	     54.61662706	     87.23618819	    100.89866975	    -21.45501743	     47.42380783	     57.45085995	     80.48806932
      1.43333330	    -19.97045115	     -2.18139216	      3.65006730	      0.51672642	      1.16111529	     -0.20798311	     32.26614211	      0.09972154	      4.61446538	     50.36477736	      0.87903119	     33.63267978	     -6.92057001	     -7.49999987	     29.56195856	     -2.28861993	      0.08498796	     51.41457850	      0.89735368	     24.46903330	      1.92991451	     -7.49999987	    -22.59387479	     -4.27166370	      2.19324090	     89.13926120	    -27.04999508	     31.66506593	     69.48822101	     85.78272103	     97.25915647	    -23.08422205	     41.56523904	     63.83518907	     80.92684670
